<svg xmlns="http://www.w3.org/2000/svg"
     width="16" height="16"
     viewBox="0 0 16 16">
  <path d="M10.9 8.2c-.7-.9-1.5-1.3-2.8-1.8-1.7-.6-2.6-1.1-2.5-2.3.1-1 .9-1.6 2.1-1.5.6 0 1 .3 1.3.6.1.2.3.3.6.3.5 0 .9-.3 1-.8.1-.4-.2-.8-.6-.9-.5-.2-1-.3-1.8-.4-1.2-.1-2 .1-3.1.7-1.1.6-1.6 1.6-1.7 2.9-.2 2 .9 3.2 3.2 4.1 2 .8 2.7 1.4 2.6 2.6-.1 1.1-1.1 1.7-2.2 1.6-1.4-.1-1.9-.9-2.4-1.9l-.8-1.8c-.1-.1-.2-.1-.3-.1l-.6.1c-.1 0-.2.1-.2.2l.2 3c0 .1.1.2.2.3.3.3 1.6.9 3.1 1 2.9.3 5.1-1.3 5.3-3.7.1-1-.1-1.7-.7-2.4z"
        fill="none"
        stroke="currentColor"
        stroke-width="0.8"
        stroke-linecap="round"
        stroke-linejoin="round"/>
</svg>
