<svg xmlns="http://www.w3.org/2000/svg" viewBox="0 0 283.46 283.46" height="100%" width="100%" preserveAspectRatio="xMidYMid meet" focusable="false">
  <circle cx="141.86" cy="141.73" r="138.9" fill="var(--sig-logo-background, #151632)"></circle>
  <path fill="var(--sig-logo-text, white)" d="M194.11 144.92c-9.68-12.52-20.78-18.51-39.3-25.18-24.15-8.84-36.07-14.91-34.54-31.81 1.31-14.44 15.32-22.31 30.58-20.93 8.24.75 13.95 4.01 18.18 7.76 1.9 2.54 4.82 4.3 8.23 4.61 6.38.58 12.01-4.12 12.59-10.5.52-5.77-3.28-10.92-8.73-12.28-6.42-2.37-14.49-4.38-24.68-5.3-16.91-1.53-28.79 1.14-44.12 9.73-15.37 9-23.31 23.25-24.95 41.4-2.65 29.28 18.35 45.32 45.65 56.1 28.12 10.86 38.17 19.25 36.68 35.75-1.38 15.26-15.47 23.96-31.56 22.51-20.21-1.83-27.15-12.44-33.45-25.48l-11.52-24.33c-.67-1.72-1.91-1.83-3.6-1.57l-8.06 1.77c-1.27.3-1.8 1.5-1.54 3.19l2.83 42.25c.26 1.69 1.39 3.03 2.89 4.84 4.2 4.12 21.71 12.78 43.57 14.75 40.83 3.69 71.11-18.51 74.24-53.16 1.27-14.03-1.13-24.23-9.39-34.12"></path>
</svg>
